inDegrees=yes
name=ik_S48_A04_T01
DataType=double
version=3
OpenSimVersion=4.3-2021-08-27-4bc7ad9
endheader
time	pelvis_tilt	pelvis_list	pelvis_rotation	pelvis_tx	pelvis_ty	pelvis_tz	hip_flexion_r	hip_adduction_r	hip_rotation_r	knee_angle_r	knee_angle_r_beta	ankle_angle_r	subtalar_angle_r	mtp_angle_r	hip_flexion_l	hip_adduction_l	hip_rotation_l	knee_angle_l	knee_angle_l_beta	ankle_angle_l	subtalar_angle_l	mtp_angle_l	lumbar_extension	lumbar_bending	lumbar_rotation	arm_flex_r	arm_add_r	arm_rot_r	elbow_flex_r	pro_sup_r	wrist_flex_r	wrist_dev_r	arm_flex_l	arm_add_l	arm_rot_l	elbow_flex_l	pro_sup_l	wrist_flex_l	wrist_dev_l
0	0	0	0	0	0.9399999999999999	0	0	0	0	0	0	0	0	0	0	0	0	0	0	0	0	0	0	0	0	0	0	0	0	89.99999999963507	0	0	0	0	0	0	89.99999999869995	0	0
0.02	21.6789572760464	12.7641595647002	32.15224702195952	0	0.9399999999999999	0	35.25706921562877	-16.9237248101824	-9.504224674141604	78.78743052682101	1.375100071879317	0	0	0	42.38166135840924	-10.17089957958703	-11.13722774568437	81.94082315487731	1.430137155847016	0	0	0	0	0	0	3.942962678671823	-3.942962678671822	0.7263129052360581	21.9379399918722	89.27368713733138	0	0	3.942962678671823	-3.942962678671822	0.7263129052360581	21.9379399918722	89.27368713653257	0	0
0.04	21.67907981670188	12.75661412776557	32.15062780277814	0	0.9399999999999999	0	35.27627768338651	-16.95913517040131	-9.577904493859306	78.80600566101398	1.375424269129984	0	0	0	42.49633005169278	-10.27176121114529	-11.03370457745072	82.00265793854793	1.431216376414327	0	0	0	0	0	0	3.946900031943818	-3.946900031943817	0.7270619479008901	21.95745114744698	89.27293809471098	0	0	3.946900031943818	-3.946900031943817	0.7270619479008901	21.95745114744698	89.27293809391234	0	0
0.06	21.66293821637126	12.78810776245633	32.15725083570571	0	0.9399999999999999	0	35.26512899414248	-17.02522150359508	-9.599514207412184	78.65796121678855	1.372840406138965	0	0	0	42.49292440903099	-10.318375619898	-11.01174701532064	81.84948608119103	1.428543023182054	0	0	0	0	0	0	4.318593211807138	-4.318593211807136	0.791665340615653	22.71701720008519	89.2083347057374	0	0	4.318593211807138	-4.318593211807136	0.791665340615653	22.71701720008519	89.20833470495087	0	0
0.08	21.67366047380073	12.81085500520892	32.16496830613633	0	0.9399999999999999	0	35.28709242583612	-17.08402936280544	-9.621320085943363	78.84385403991286	1.376084847958312	0	0	0	42.50812346737759	-10.33424414046908	-11.03812772813659	82.05571577526084	1.432142410358953	0	0	0	0	0	0	4.490693980827017	-4.490693980827016	0.8225151548945536	23.21520834806753	89.1774848932606	0	0	4.490693980827017	-4.490693980827016	0.8225151548945536	23.21520834806753	89.17748489247978	0	0
0.1	21.66689089721282	12.80970088058855	32.17121775981783	0	0.9399999999999999	0	35.2852355177429	-17.07824224317754	-9.617439392602638	78.82202272625663	1.375703819654975	0	0	0	42.46331191681437	-10.32685471315296	-11.10812515199549	81.94416922071193	1.430195555712819	0	0	0	0	0	0	4.78363468151656	-4.783634681516558	0.8749601082903006	24.01295713603422	89.12503994292629	0	0	4.78363468151656	-4.783634681516558	0.8749601082903006	24.01295713603422	89.12503994215528	0	0
0.12	21.61617675300581	12.72848047831951	32.21892776964948	0	0.9399999999999999	0	35.3622931802313	-17.04940069853426	-9.606871012656146	78.8458106914255	1.376118997969522	0	0	0	42.52741354879982	-10.33874340133689	-11.14287039662071	81.95189516433388	1.430330398866845	0	0	0	0	0	0	4.786911207090355	-4.786911207090354	0.8755774387595402	24.02833565954128	89.12442261249359	0	0	4.786911207090355	-4.786911207090354	0.8755774387595402	24.02833565954128	89.12442261172276	0	0
0.14	21.63008234296362	12.69211954425914	32.26004485979845	0	0.9399999999999999	0	35.35505448939039	-17.07906250755803	-9.583182600141853	78.84850046538727	1.376165943381289	0	0	0	42.53239994739828	-10.35099287281018	-11.16161753648619	81.95316818949622	1.430352617347389	0	0	0	0	0	0	4.787299676793244	-4.787299676793242	0.8756489679587753	24.0300351560922	89.12435108329858	0	0	4.787299676793244	-4.787299676793242	0.8756489679587753	24.0300351560922	89.12435108252777	0	0
0.16	21.60657243682738	12.69653650486645	32.26927075723817	0	0.9399999999999999	0	35.40707375782475	-17.04037794670699	-9.329911577193572	78.87874884952801	1.376693877277953	0	0	0	42.54311059655183	-10.3692733720661	-11.22976116980889	81.96090598447758	1.430487667346658	0	0	0	0	0	0	4.79122859896409	-4.791228598964088	0.8763905313096783	24.04856263705828	89.12360951999156	0	0	4.79122859896409	-4.791228598964088	0.8763905313096783	24.04856263705828	89.12360951922096	0	0
0.18	21.6017533156581	12.70803277916494	32.33487000803221	0	0.9399999999999999	0	35.39693279505601	-16.96581315694309	-9.265162669210174	78.88679626067969	1.376834331098812	0	0	0	42.55917971814852	-10.3498495043935	-11.19071963985249	81.9625730408785	1.430516762969671	0	0	0	0	0	0	4.791839482929156	-4.791839482929154	0.8765041397541	24.05131553436426	89.12349591155383	0	0	4.791839482929156	-4.791839482929154	0.8765041397541	24.05131553436426	89.12349591078329	0	0
0.2	21.61287289208134	12.68777063050608	32.35826035036216	0	0.9399999999999999	0	35.41642809047696	-16.94649426877002	-9.032944877709419	78.90535680591046	1.377158273724054	0	0	0	42.57912517659641	-10.42045536050855	-11.13611260634421	81.97653767506353	1.430760491815036	0	0	0	0	0	0	4.793371196638432	-4.79337119663843	0.8767918689302922	24.05843230051714	89.12320818239469	0	0	4.793371196638432	-4.79337119663843	0.8767918689302922	24.05843230051714	89.12320818162416	0	0
0.22	21.59641709920323	12.68012492316089	32.37540051723322	0	0.9399999999999999	0	35.45247584378537	-16.89650499372146	-8.905899664236287	78.92683233493788	1.37753309241419	0	0	0	42.60119907100556	-10.40817275205201	-11.1407893413294	81.99346325587383	1.431055898927988	0	0	0	0	0	0	4.795147921522477	-4.795147921522475	0.8771260084366271	24.06671439217948	89.12287404290811	0	0	4.795147921522477	-4.795147921522475	0.8771260084366271	24.06671439217948	89.12287404213768	0	0
0.24	21.60154003340565	12.65395384012641	32.43089701623575	0	0.9399999999999999	0	35.44488922787781	-16.88591699232298	-8.864481233385133	78.93171589658819	1.377618326644212	0	0	0	42.61890299114296	-10.39370324093898	-11.15698500119512	81.99577347483736	1.431096219855344	0	0	0	0	0	0	4.795600324174123	-4.795600324174121	0.8772098587098727	24.06873194538381	89.12279019263981	0	0	4.795600324174123	-4.795600324174121	0.8772098587098727	24.06873194538381	89.12279019186941	0	0
0.26	21.55829415633693	12.65480665329632	32.41738145925251	0	0.9399999999999999	0	35.51518653277983	-16.86852854107271	-8.670610377964399	78.94384977133578	1.377830102709582	0	0	0	42.65988519876304	-10.39476006694479	-11.28009954318114	82.00623279619522	1.431278769450563	0	0	0	0	0	0	4.798887411797337	-4.798887411797335	0.8778300240700765	24.08419870903492	89.1221700273163	0	0	4.798887411797337	-4.798887411797335	0.8778300240700765	24.08419870903492	89.12217002654606	0	0
0.28	21.5633075131461	12.62151603841851	32.45670477922868	0	0.9399999999999999	0	35.51586526856555	-16.87350033988119	-8.64258671707822	78.94524104577143	1.377854385029283	8.082103817230515e-35	0	0	42.66522498948932	-10.37742042042227	-11.28912756190675	82.00518868918596	1.431260546345508	8.082103817230515e-35	0	0	0	0	0	4.799256202460314	-4.799256202460312	0.8778977670203488	24.08579845766236	89.12210228437002	0	0	4.799256202460314	-4.799256202460312	0.8778977670203488	24.08579845766236	89.1221022835998	0	0
0.3	21.51945049133916	12.61961915824202	32.46241068181962	0	0.9399999999999999	0	35.57485511195308	-16.87774970517301	-8.467594893449448	78.94849309803256	1.377911144048686	0	0	0	42.69657532585374	-10.35796456448813	-11.31664333651705	81.98120297052922	1.430841916581491	0	0	0	0	0	0	4.802753354238483	-4.802753354238482	0.8785566547812934	24.10218403794378	89.12144339664809	0	0	4.802753354238483	-4.802753354238482	0.8785566547812934	24.10218403794378	89.12144339587802	0	0
0.32	21.52023989445611	12.60313776257994	32.46442584154759	0	0.9399999999999999	0	35.53035007374101	-16.8566095390207	-8.377703164595594	78.72741969414112	1.37405268526219	0	0	0	42.63390667888996	-10.35101673916075	-11.29944834355912	81.70538488177964	1.426027982796253	0	0	0	0	0	0	5.172604756579669	-5.172604756579666	0.9444425465086387	25.13614583248117	89.05555750876316	0	0	5.172604756579669	-5.172604756579666	0.9444425465086387	25.13614583248117	89.05555750800542	0	0
0.34	21.5092504020962	12.58548881156404	32.47299536310624	0	0.9399999999999999	0	35.58198844028514	-16.86115672350848	-8.258352673377685	78.88349023660622	1.376776630093579	0	0	0	42.70661072513438	-10.33874877129017	-11.23498733888956	81.91826847794439	1.429743502472814	0	0	0	0	0	0	5.41734376425834	-5.417343764258337	0.9864666492492522	25.58561197141256	89.01353340844906	0	0	5.41734376425834	-5.417343764258337	0.9864666492492522	25.58561197141256	89.0135334076992	0	0
0.36	21.50482982868147	12.58562022070376	32.45384092527343	0	0.9399999999999999	0	35.58942973511004	-16.84285393932167	-8.229007974763078	78.85397451563462	1.376261483581525	0	0	0	42.70779384326868	-10.30591951532326	-11.22935965329375	81.91244978737362	1.429641947164199	0	0	0	0	0	0	5.952087604802908	-5.952087604802905	1.082258849172789	27.53190354033075	88.91774121412732	0	0	5.952087604802908	-5.952087604802905	1.082258849172789	27.53190354033075	88.91774121339536	0	0
